<?xml version="1.0" encoding="UTF-8"?>
<svg xmlns="http://www.w3.org/2000/svg" viewBox="330 290 720 135">
  <defs>
    <style>
      .cls-1 {
        fill: #1e1e1e;
      }
    </style>
  </defs>
  <path class="cls-1" d="M337.77,410.86c-1.91-10.3,7.29-4.74,8.64-11.49.33-5.62.17-11.44.33-17.02-.1-11.2.31-25.14-.13-36.49-1.85-2.44-7.21.19-9.49-1.98-1.19-1.48-1.55-7.15.75-8.42,1.97-1.07,6.19-.51,8.24-2.42,2.48-2.93,2.11-8.52,3.64-12.13,1.64-5.52,4.75-10.71,8.72-14.98,9.51-10.61,24.92-15.24,38.56-11.78,4,.59,6.98,4.59,10.99,4.08,4.32-.11,15.94-7.34,15.89.73-.72,21.76-.54,41.94-.54,70.19.01,5.43-.01,8.76,0,14.11-.01,4.97.04,10.11.22,15.03.07,1.29.25,2.59,1.15,3.52,1.76,1.99,5.6,1.47,6.7,4.18.62,1.87,1.08,5.86-1.22,5.91-5.9.03-32.82.01-39.21,0-.82-.01-1.41-.14-1.66-1.04-1.97-9.69,6.5-5.15,7.91-11.32.38-4.32.14-8.72.3-13.07.16-19.64.13-57.89.03-71.12-.42-1.5-2.55-1.4-4.17-2.12-2.89-.93-5.53-2.63-7.58-4.87-1.68-1.73-3.16-4.36-4.68-4.98-2.21-.87-3.67,1.81-4.75,3.46-3.72,6.32-4.11,13.6-4.3,20.83.05,2.02-.37,5.01,1.92,5.79,3.29.71,7.62.18,11.11.34,2.04.08,3.16-.12,3.86,1.14.7,2.06.37,4.92.34,7.12.05,1.91-1.26,2.82-3.05,2.71-3.83.18-9.58-.26-12.93.23-1.44.61-.75,1.9-.92,4.61v31.33c0,5.12-.02,10.36.06,15.53.04,1.44.03,3.05.88,4.22,1.76,2.35,6.04,2.17,8.22,3.51,2.1.78,2.75,7.63.33,7.67-5.85.05-35.96.01-42.58.02-.77,0-1.32-.09-1.56-.94l-.03-.1h.01ZM474.74,414.28c-17.28.4-33.07-9.15-38.46-25.84-3.55-10.41-3.4-24.55,1.24-34.46,16.25-34.42,71.09-28.67,77.62,9.66,4.65,27.24-11.24,51.06-40.18,50.64h-.22ZM474.93,405.89c15.87-.68,13.61-32.68,13.07-43.95-.66-6.45-1.36-13.25-5.59-18.43-3.94-4.97-11.37-4.89-15.3.04-4.58,5.66-5.08,13.18-5.71,20.19-.32,11.25-2.44,41.45,13.35,42.15h.18,0ZM610.86,340c-.99-1.42-1.1-4.28-.13-5.64.45-.48,1.23-.51,1.93-.53,4.99-.01,18.86,0,24.02,0,1.92-.11,2.73.71,2.72,2.93.39,5.34-5.15,4.64-8.31,5.69-.73.27-.9.58-1.12,1.18-3.04,8.14-21.32,60.93-24.27,68.07-.22.35-1.39.42-2.1.45-1.97.04-6,.05-7.97,0-.92-.05-2.05-.07-2.42-1.01-3.44-9.28-14.03-39.53-18.13-50.48-.14-.2-.22-.04-.31.14-2.07,5.65-7.42,20.91-10.31,29.01-3.49,9.8-6.64,18.86-7.58,21.33-.48,1.16-2.01.96-3.1,1.04-2.09.03-5.54.03-7.3-.01-.71-.03-1.88-.11-2.11-.44-3.01-7.07-21.84-59.98-25.04-68.34-.85-2.24-3.85-1.14-5.94-2.79-1.98-1.38-1.76-4.72-1.27-5.98.22-.54.7-.72,1.24-.75,1.29-.05,3.65-.01,6.62-.02,10.88.11,27.7-.21,33.22.12,1.65.62,1.3,5.8-.51,6.67-1.47,1.31-6.48.72-7.37,2.32,1.21,5.93,8.09,26.7,11,36.92.86,2.71,1.05,3.94,1.39,3.16,2.11-6.21,11.55-32.81,13.59-39.8-.02-.35-.23-.6-.72-.8-1.54-.74-6.52-.55-7.67-2.65-.91-1.71-.95-4.14-.06-5.53.23-.23.53-.33.87-.37,1.46-.1,4.46-.02,8.19-.04,9.66.02,24.08-.03,28.18.02,2.53-.14,2.01,5.87.13,6.81-1.16.83-3.16,1.02-4.64,1.34-1.69.42-2.45.54-2.15,1.84,1.53,4.87,8.31,25.23,11.4,34.69,1.07,2.84,1.14,4.66,1.73,2.9,1.54-5.01,10.39-31.32,12.29-38.03,0-2.07-6.65-1.22-7.87-3.28l-.09-.12-.03-.02ZM664.27,414.29c-9.28-.1-18.71-1.89-26.48-6.66-1.46-1.11-1.74-2.96-1.72-4.73.06-3.57.2-9.63.32-12.65-.16-4.13,4.22-2.84,7.13-3.07,2.53.12,5.51-.52,6.21,2.36,1.16,3.72.97,9.68,3.14,12.95,3.1,3.15,10.01,2.95,14.61,2.67,4.63-.36,9.28-2.2,10.51-6.76,3.08-13.64-17.8-13.96-26.18-18.38-8.56-3.54-14.61-11.38-14.83-20.81-.95-13.31,9.34-24.19,22.11-26.76,10.33-2.34,21.83-1.18,31.05,2.63,3.9,1.42,6.43,2.77,5.87,7.42-.18,2.98-.43,7.22-.64,9.66-.11,2.52-1.2,3.28-3.9,3.26-1.81.03-4.34.06-6.15-.04-1.26-.1-2.4-.29-3.08-1.36-1.95-3.43-1.38-9.08-4.27-12.14-1.68-1.34-4.27-1.33-6.42-1.47-4.51-.16-9.72.82-11.88,4.28-1.48,2.19-1.66,5.11-.65,7.53,2.63,5.94,11.11,7.16,16.86,9.16,5.02,1.43,10.21,3.15,14.47,5.92,9.96,5.93,12.89,19.81,8.68,30.06-5.63,13.29-21.22,16.94-34.53,16.92h-.23ZM733.52,414.22c-18.68-.31-24.36-9.89-23.58-27.78.22-11.85.15-27.57.15-38.45,0-1.62-.03-2.49-1.03-2.85-2.52-.93-6.7.58-8.92-1.41-1.01-1.17-.93-4.14-.64-6.11.53-3.28,4.64-2.82,7.2-3.35,4.91-.51,5.23-1.2,6.8-5.87,1.57-4.26,3.33-9.1,4.92-13.42.79-2.13,1.25-4.02,3.68-3.94,3.18-.13,6.76-.03,9.94-.06,2.79.03,4.86-.3,4.71,2.59.02,4.14-.26,13.54-.2,18.08.07,1.82.8,2.09,3.37,2.13,2.93.04,8.2-.04,10.92.05,3.49-.18,3.02,3.24,3.06,5.78,0,3.15.07,5.34-3.64,5.16-3.1.04-8.51-.01-11.07.03-1.79.04-2.89.03-2.7,2.19v40.63c-.43,10.07,4.55,15.79,14.84,11.65,5.23-1.34,6.84,3.36,3.23,6.8-5.12,5.86-12.86,8.24-20.8,8.14h-.24ZM912.98,414.22c-18.68-.31-24.36-9.89-23.58-27.78.22-11.85.15-27.57.15-38.45,0-1.62-.03-2.49-1.03-2.85-2.52-.93-6.7.58-8.92-1.41-1.01-1.17-.93-4.14-.64-6.11.53-3.28,4.64-2.82,7.2-3.35,4.91-.51,5.23-1.2,6.8-5.87,1.57-4.26,3.33-9.1,4.92-13.42.79-2.13,1.25-4.02,3.68-3.94,3.18-.13,6.76-.03,9.94-.06,2.79.03,4.86-.3,4.71,2.59.02,4.14-.26,13.54-.2,18.08.07,1.82.8,2.09,3.37,2.13,2.93.04,8.2-.04,10.92.05,3.49-.18,3.02,3.24,3.06,5.78,0,3.15.07,5.34-3.64,5.16-3.1.04-8.51-.01-11.07.03-1.79.04-2.89.03-2.7,2.19v40.63c-.43,10.07,4.55,15.79,14.84,11.65,5.23-1.34,6.84,3.36,3.23,6.8-5.12,5.86-12.85,8.24-20.8,8.14h-.24ZM969.21,339.76c-9.16,1.13-11.48,10.91-12.34,19.1-.05,2.11-1.05,5.34,1.09,6.52,1.31.63,4.73.31,7.09.39,4.72-.19,9.37.69,12.95-2.55,2.64-3.17,2.43-8.26,1.84-12.7-.57-5.34-4.9-10.77-10.46-10.77h-.18,0ZM973.41,414.28c-15.33.35-30.21-7.6-36.39-21.89-4.36-9.7-5.02-23.17-1.74-33.79,2.67-8.6,9-16.3,16.86-21.01,18.23-11.25,45.93-8.13,53.76,14.08,1.85,4.94,2.59,11.05,2.2,16.62-.28,2.2-.02,5.99-3.04,5.76-7.22.02-35.04,0-42.26.01-2.37.01-1.98,1.92-1.7,4.3,1.8,15.66,15.21,24.08,30.03,19.05,2.23-.81,4.29-2,6.21-3.4,1.77-1.3,3.51-2.89,5.74-1.93,3.61,1.6,3.73,5.4,1.24,8.21-2.9,3.97-6.55,7.13-10.61,9.34-5.73,3.2-13.15,4.67-20.1,4.65h-.21,0ZM1029.23,414.29c-9.29.22-16.5-9.19-13.99-18.11,3.52-13.57,22.26-14.87,27.57-1.85,3.96,9.27-3.23,20.18-13.38,19.96h-.2Z"/>
  <g>
    <path d="M880.26,404.77c-1.22-1-3.19-1.21-4.57-2.11-1.63-.93-2.04-2.74-2.04-4.54-.14-7.73-.06-16.31-.08-24.15.02-6.55-.05-14.25.06-20.64.08-3.92.27-12.7.34-17.03.04-1.89-.38-3.19-1.08-3.94-2.11-1.86-4.17-.45-7.11.37-7.54,2.42-21.72,6.94-26.34,8.44-.75.26-1.35.58-1.69,1.31-.67,1.53-.73,4.53,1.68,5.67,2.8,1.18,7.4.78,7.91,4.62.85,14.84.41,30.65.37,45.48-.08,4.97-4.21,5.24-5.13,5.41-3.32.33-9.9.8-12.63-3.72-1.43-2.8-.62-6.71-.82-10.48v-21.48c.38-15.8-1.22-32.63-19.54-35.84-13.29-2.13-30.75-1.21-41.15,8.21-5.46,4.55-9.64,14.75-2.37,19.47,5.77,3.72,14.59,1.03,16.94-5.35,1.47-3.37,1.47-7.29,2.19-10.83.77-4.46,5.13-4.27,8.66-3.51,5.53.97,8.2,4.51,8.9,10.63.31,3.94,1.46,9.04-.9,12.03-.97,1.11-2.41,1.63-3.82,2-3.31.84-6.83,1.8-10.56,2.97-8.12,2.61-15.1,5.01-21.45,10.4-10.44,8.45-9.1,28.22,3.57,33.77,6.09,2.92,14.42,2.95,20.7.89,4.24-1.28,7.62-4.84,11.43-7.5,5.49-3.02,4.15,8.69,20.47,8.75h.22c4.32.06,9.71-.04,14.04-1.22,1.68-.4,3.86-.91,7.6-1.16,1.24-.08,2.36-.12,3.19-.16,10.07.09,27.36.53,32.76.53.87.03,1.46-.44,1.62-1.31.32-1.6.43-4.62-1.35-5.99h-.02ZM798.21,396.67c-2.8,1.94-4.85,3.18-6.14,3.72-1.29.54-2.53.81-3.71.81-2.69,0-5.01-.97-6.95-2.91-1.83-1.94-2.75-4.9-2.75-8.89,0-3.77,1.08-7,3.23-9.69,2.15-2.8,5.06-4.95,8.72-6.46.97-.43,2.1-.86,3.39-1.29,1.4-.54,2.8-1.02,4.2-1.45v26.17h.01Z"/>
    <path d="M860.34,319.29h.2c9.95.25,17.1-10.21,11.98-19.07-5.36-9.32-20.69-8.59-24.87,1.4-3.69,8.8,3.42,17.88,12.68,17.68h.01Z"/>
  </g>
</svg>
